<?xml version="1.0" encoding="UTF-8" standalone="no"?>
<svg
   width="128"
   height="128"
   viewBox="0 0 128 128"
   version="1.1"
   id="svg12"
   sodipodi:docname="ingecad.svg"
   inkscape:version="1.4.3 (0d15f75042, 2025-12-25)"
   xmlns:inkscape="http://www.inkscape.org/namespaces/inkscape"
   xmlns:sodipodi="http://sodipodi.sourceforge.net/DTD/sodipodi-0.dtd"
   xmlns:xlink="http://www.w3.org/1999/xlink"
   xmlns="http://www.w3.org/2000/svg"
   xmlns:svg="http://www.w3.org/2000/svg">
  <!-- IngeCAD app icon — GNOME/Yaru style: dark rounded tile, drafting grid,
       UCS axes (X red, Y green) and a lowercase "i" whose dot is the yellow
       AutoSnap square. SPDX-License-Identifier: GPL-3.0-or-later
       NOTE: this comment must live INSIDE <svg> — a comment between the XML
       declaration and the root tag breaks gdk-pixbuf/librsvg format sniffing,
       and GNOME Shell then draws a blank grey square in the dock. -->
  <sodipodi:namedview
     id="namedview12"
     pagecolor="#ffffff"
     bordercolor="#000000"
     borderopacity="0.25"
     inkscape:showpageshadow="2"
     inkscape:pageopacity="0.0"
     inkscape:pagecheckerboard="0"
     inkscape:deskcolor="#d1d1d1"
     inkscape:zoom="3.5410582"
     inkscape:cx="68.623555"
     inkscape:cy="31.205361"
     inkscape:window-width="1469"
     inkscape:window-height="891"
     inkscape:window-x="0"
     inkscape:window-y="0"
     inkscape:window-maximized="1"
     inkscape:current-layer="svg12" />
  <defs
     id="defs2">
    <linearGradient
       id="bg"
       x1="0"
       y1="0"
       x2="0"
       y2="1">
      <stop
         offset="0"
         stop-color="#2a3039"
         id="stop1"
         style="stop-color:#273445;stop-opacity:1;" />
      <stop
         offset="1"
         stop-color="#171b21"
         id="stop2" />
    </linearGradient>
    <clipPath
       id="tile">
      <rect
         x="8"
         y="8"
         width="112"
         height="112"
         rx="24"
         id="rect2" />
    </clipPath>
    <linearGradient
       spreadMethod="pad"
       gradientTransform="matrix(1.1992782,-1.2061574,1.2306697,1.2255073,-36.004294,13.88486)"
       gradientUnits="userSpaceOnUse"
       xlink:href="#linearGradient1481"
       id="linearGradient3265-3"
       y2="31.210939"
       x2="23.575972"
       y1="25.356892"
       x1="23.575972" />
    <linearGradient
       id="linearGradient1481">
      <stop
         id="stop1465"
         style="stop-color:#ad5f00;stop-opacity:1"
         offset="0" />
      <stop
         id="stop1467"
         style="stop-color:#ffe16b;stop-opacity:1"
         offset="0.13482948" />
      <stop
         id="stop1469"
         style="stop-color:#f9c440;stop-opacity:1"
         offset="0.20224422" />
      <stop
         id="stop1471"
         style="stop-color:#fff394;stop-opacity:1"
         offset="0.26965895" />
      <stop
         id="stop1473"
         style="stop-color:#f9c440;stop-opacity:1"
         offset="0.44650277" />
      <stop
         id="stop1475"
         style="stop-color:#f9c440;stop-opacity:1"
         offset="0.57114136" />
      <stop
         id="stop1477"
         style="stop-color:#ffe16b;stop-opacity:1"
         offset="0.72038066" />
      <stop
         id="stop1479"
         style="stop-color:#ad5f00;stop-opacity:1"
         offset="1" />
    </linearGradient>
    <linearGradient
       spreadMethod="pad"
       y2="31.210939"
       x2="23.575972"
       y1="25.356892"
       x1="23.575972"
       gradientTransform="matrix(1.322826,-1.3287728,1.3574515,1.3500898,705.51506,-6.3491522)"
       gradientUnits="userSpaceOnUse"
       id="linearGradient1462"
       xlink:href="#linearGradient3155-6" />
    <linearGradient
       id="linearGradient3155-6">
      <stop
         offset="0"
         style="stop-color:#555761;stop-opacity:1"
         id="stop3157-7" />
      <stop
         offset="0.13482948"
         style="stop-color:#d4d4d4;stop-opacity:1"
         id="stop3171-5" />
      <stop
         offset="0.20224422"
         style="stop-color:#abacae;stop-opacity:1"
         id="stop3173-3" />
      <stop
         offset="0.26965895"
         style="stop-color:#fafafa;stop-opacity:1"
         id="stop3163-5" />
      <stop
         offset="0.44650277"
         style="stop-color:#abacae;stop-opacity:1"
         id="stop3165-6" />
      <stop
         offset="0.57114136"
         style="stop-color:#abacae;stop-opacity:1"
         id="stop3167-2" />
      <stop
         offset="0.72038066"
         style="stop-color:#d4d4d4;stop-opacity:1"
         id="stop3169-9" />
      <stop
         offset="1"
         style="stop-color:#7e8087;stop-opacity:1"
         id="stop3159-1" />
    </linearGradient>
    <linearGradient
       y2="30.000141"
       x2="30.037716"
       y1="24.989594"
       x1="30.037716"
       gradientTransform="matrix(1.1653763,-1.172061,1.4402748,1.4342331,-39.961363,8.1492416)"
       gradientUnits="userSpaceOnUse"
       id="linearGradient980"
       xlink:href="#linearGradient3240" />
    <linearGradient
       id="linearGradient3240">
      <stop
         offset="0"
         style="stop-color:#3e3e3e;stop-opacity:1"
         id="stop3242" />
      <stop
         offset="0.5"
         style="stop-color:#828282;stop-opacity:1"
         id="stop3244" />
      <stop
         offset="1"
         style="stop-color:#3c3c3c;stop-opacity:1"
         id="stop3246" />
    </linearGradient>
    <linearGradient
       y2="30.000141"
       x2="30.037716"
       y1="24.989594"
       x1="30.037716"
       gradientTransform="matrix(1.1653763,-1.172061,1.4402748,1.4342331,-40.295111,8.4849048)"
       gradientUnits="userSpaceOnUse"
       id="linearGradient982"
       xlink:href="#linearGradient3223" />
    <linearGradient
       id="linearGradient3223">
      <stop
         offset="0"
         style="stop-color:#999999;stop-opacity:1"
         id="stop3225" />
      <stop
         offset="0.5"
         style="stop-color:#ffffff;stop-opacity:1"
         id="stop3231" />
      <stop
         offset="1"
         style="stop-color:#777777;stop-opacity:1"
         id="stop3227" />
    </linearGradient>
    <linearGradient
       y2="30.000141"
       x2="30.037716"
       y1="24.989594"
       x1="30.037716"
       gradientTransform="matrix(1.1653763,-1.172061,1.4402748,1.4342331,-38.801593,6.9828175)"
       gradientUnits="userSpaceOnUse"
       id="linearGradient984"
       xlink:href="#linearGradient3240" />
    <linearGradient
       y2="30.000141"
       x2="30.037716"
       y1="24.989594"
       x1="30.037716"
       gradientTransform="matrix(1.1653763,-1.172061,1.4402748,1.4342331,-39.135341,7.3184803)"
       gradientUnits="userSpaceOnUse"
       id="linearGradient986"
       xlink:href="#linearGradient3223" />
    <linearGradient
       y2="30.000141"
       x2="30.037716"
       y1="24.989594"
       x1="30.037716"
       gradientTransform="matrix(1.1653763,-1.172061,1.4402748,1.4342331,-37.636216,5.810757)"
       gradientUnits="userSpaceOnUse"
       id="linearGradient988"
       xlink:href="#linearGradient3240" />
    <linearGradient
       y2="30.000141"
       x2="30.037716"
       y1="24.989594"
       x1="30.037716"
       gradientTransform="matrix(1.1653763,-1.172061,1.4402748,1.4342331,-37.969965,6.1464195)"
       gradientUnits="userSpaceOnUse"
       id="linearGradient990"
       xlink:href="#linearGradient3223" />
    <linearGradient
       gradientTransform="matrix(1.2854316,-1.2912103,1.5886497,1.5800342,-46.994731,7.9570591)"
       gradientUnits="userSpaceOnUse"
       xlink:href="#linearGradient3290-6"
       id="linearGradient3268-0"
       y2="26.02973"
       x2="9"
       y1="29.056757"
       x1="9" />
    <linearGradient
       id="linearGradient3290-6">
      <stop
         offset="0"
         style="stop-color:#fff394;stop-opacity:1"
         id="stop3292-2" />
      <stop
         offset="1"
         style="stop-color:#fafafa;stop-opacity:1"
         id="stop3294-6" />
    </linearGradient>
    <linearGradient
       gradientTransform="matrix(1.0800487,0,0,1.0787164,-1.8780291,-0.9799908)"
       gradientUnits="userSpaceOnUse"
       xlink:href="#linearGradient3191-8"
       id="linearGradient3270-1"
       y2="41.391716"
       x2="9.5220556"
       y1="37.371799"
       x1="5.5178981" />
    <linearGradient
       id="linearGradient3191-8">
      <stop
         offset="0"
         style="stop-color:#d48e15;stop-opacity:1"
         id="stop3193-7" />
      <stop
         offset="1"
         style="stop-color:#ad5f00;stop-opacity:1"
         id="stop3195-9" />
    </linearGradient>
  </defs>
  <!-- tile -->
  <rect
     x="8"
     y="8"
     width="112"
     height="112"
     rx="24"
     fill="url(#bg)"
     id="rect3" />
  <g
     clip-path="url(#tile)"
     id="g6">
    <!-- drafting grid (minor lines, faint like the model-space GRID) -->
    <g
       stroke="#2e3540"
       stroke-width="1"
       id="g4">
      <path
         d="M24 8V120 M40 8V120 M56 8V120 M72 8V120 M88 8V120 M104 8V120"
         id="path3" />
      <path
         d="M8 24H120 M8 40H120 M8 56H120 M8 72H120 M8 88H120 M8 104H120"
         id="path4" />
    </g>
    <!-- brighter major lines every 5th -->
    <g
       stroke="#3a4250"
       stroke-width="1"
       id="g5">
      <path
         d="M8 88H120 M40 8V120"
         id="path5" />
    </g>
  </g>
  <!-- UCS axes: X red, Y green (AutoCAD colors), arrowheads -->
  <g
     stroke-linecap="round"
     id="g7"
     style="fill:#b79a23;fill-opacity:1">
    <line
       x1="34"
       y1="94"
       x2="98"
       y2="94"
       stroke="#d94f3d"
       stroke-width="7"
       id="line6"
       style="fill:#b79a23;fill-opacity:1;stroke:#c6262e;stroke-opacity:1" />
    <line
       x1="34"
       y1="94"
       x2="34"
       y2="32"
       stroke="#3fb950"
       stroke-width="7"
       id="line7"
       style="fill:#68b723;fill-opacity:1;stroke:#68b723;stroke-opacity:1" />
  </g>
  <path
     d="M96 85 L114 94 L96 103 Z"
     fill="#d94f3d"
     id="path7"
     style="fill:#c6262e;fill-opacity:1" />
  <path
     d="M25 34 L34 16 L43 34 Z"
     fill="#3fb950"
     id="path8"
     style="fill:#68b723;fill-opacity:1" />
  <!-- origin joint -->
  <rect
     x="29"
     y="89"
     width="10"
     height="10"
     rx="2"
     fill="#e8eaed"
     id="rect8" />
  <!-- the "i": sky-blue stem, AutoSnap-yellow square dot -->
  <!-- subtle tile edge -->
  <rect
     x="8.5"
     y="8.5"
     width="111"
     height="111"
     rx="23.5"
     fill="none"
     stroke="#000000"
     stroke-opacity="0.45"
     id="rect11" />
  <rect
     x="9.5"
     y="9.5"
     width="109"
     height="109"
     rx="22.5"
     fill="none"
     stroke="#ffffff"
     stroke-opacity="0.05"
     id="rect12" />
  <g
     id="layer1-6"
     transform="translate(128.10388,-57.61451)">
    <g
       id="g1"
       transform="translate(-83.070203,93.054602)">
      <g
         id="g2"
         transform="matrix(1.1316362,0,0,1.1316362,-1.5308464,-5.9837825)">
        <path
           style="fill:url(#linearGradient3265-3);fill-opacity:1;stroke:#ad5f00;stroke-width:0.907163;stroke-linecap:butt;stroke-linejoin:round;stroke-miterlimit:4;stroke-dasharray:none;stroke-dashoffset:0;stroke-opacity:1"
           id="rect2383-3"
           transform="matrix(1.1030185,0,0,1.1016579,-2.428387,-1.5110325)"
           d="m 8.5762863,31.492497 c 0.8059374,-0.620256 2.9488947,0.385299 4.8753177,2.303641 1.921816,1.913752 2.887606,4.008698 2.281048,4.822706 -0.0023,0.0031 0.04736,0.04176 0.04501,0.04482 L 45.021323,9.252256 C 45.763796,8.5055243 44.755681,6.2907181 42.768101,4.3114771 40.780523,2.3322353 38.562424,1.3343541 37.819947,2.0810901 Z" />
        <path
           style="opacity:0.6;fill:#f9c440;fill-opacity:1;stroke:none"
           id="path3208-6"
           transform="matrix(1.1030185,0,0,1.1016579,-2.428387,-1.5110325)"
           d="m 8.5762863,31.492497 c 0.8059374,-0.620256 2.9488947,0.385299 4.8753177,2.303641 1.921816,1.913752 2.887606,4.008698 2.281048,4.822706 -0.0023,0.0031 0.04736,0.04176 0.04501,0.04482 l 20.139158,-20.254679 0.07284,-0.07325 c 0.0024,-0.0031 -0.04731,-0.04172 -0.04501,-0.04482 0.606558,-0.81401 -0.359232,-2.908954 -2.281048,-4.822706 -1.926422,-1.918341 -4.069381,-2.923897 -4.875318,-2.30364 l -0.07284,0.07325 -20.1391587,20.25468 z" />
        <path
           d="m 8.5762863,31.492497 c 0.8059374,-0.620256 2.9488947,0.385299 4.8753177,2.303641 1.921816,1.913752 2.887606,4.008698 2.281048,4.822706 -0.0023,0.0031 0.04736,0.04176 0.04501,0.04482 L 45.021323,9.252256 C 45.763796,8.5055243 44.755681,6.2907181 42.768101,4.3114771 40.780523,2.3322353 38.562424,1.3343541 37.819947,2.0810901 Z"
           transform="matrix(1.1030185,0,0,1.1016579,-2.428387,-1.5110325)"
           id="path1483"
           style="fill:none;fill-opacity:1;stroke:#ad5f00;stroke-width:0.907163;stroke-linecap:butt;stroke-linejoin:round;stroke-miterlimit:4;stroke-dasharray:none;stroke-dashoffset:0;stroke-opacity:1" />
        <path
           id="path1458"
           transform="translate(-747.65684,20.134485)"
           d="m 787.83398,-19.623047 c -0.37879,-0.02145 -0.68393,0.06387 -0.88867,0.269531 l -9.96289,10.0078129 c 0.88897,-0.6833109 3.25208,0.4237538 5.37696,2.5371093 2.11979,2.1083001 3.18662,4.4157395 2.51757,5.3125 -0.003,0.00342 0.0515,0.047366 0.0488,0.050781 l 9.96289,-10.0078122 c 0.81896,-0.822643 -0.29399,-3.262913 -2.48633,-5.443359 -1.64425,-1.635336 -3.43198,-2.662224 -4.56836,-2.726563 z"
           style="fill:url(#linearGradient1462);fill-opacity:1;stroke:#555761;stroke-width:1;stroke-linecap:butt;stroke-linejoin:round;stroke-miterlimit:4;stroke-dasharray:none;stroke-dashoffset:0;stroke-opacity:1" />
        <path
           style="opacity:0.9;fill:#fe9ab8;fill-opacity:1;stroke:#de3e80;stroke-width:0.907163;stroke-linecap:butt;stroke-linejoin:round;stroke-miterlimit:4;stroke-dasharray:none;stroke-dashoffset:0;stroke-opacity:1"
           id="rect3175-8"
           transform="matrix(1.1030185,0,0,1.1016579,-2.428387,-1.5110325)"
           d="m 34.250984,5.6705274 c 0.805936,-0.6202565 2.948895,0.3852987 4.875317,2.3036406 1.921815,1.9137515 2.887607,4.008696 2.281047,4.822705 -0.0023,0.0031 0.04736,0.04176 0.04501,0.04482 l 3.568966,-3.589437 0.07284,-0.073254 c 0.0024,-0.00306 -0.04732,-0.041724 -0.04501,-0.044821 C 45.655708,8.3201745 44.689917,6.2252293 42.768101,4.3114771 40.841679,2.3931359 38.698721,1.3875792 37.892784,2.0078357 l -0.07284,0.073254 -3.568963,3.5894373 z" />
        <path
           style="fill:url(#linearGradient980);fill-opacity:1;stroke:none"
           id="path3233-2"
           transform="matrix(1.1030185,0,0,1.1016579,-2.428387,-1.5110325)"
           d="m 30.250607,9.6938497 c 0.805937,-0.6202572 2.948897,0.3852983 4.875318,2.3036403 1.921816,1.913752 2.887607,4.008697 2.281047,4.822706 -0.0023,0.0031 0.04736,0.04176 0.04501,0.04482 l 0.36418,-0.366271 c 0.0024,-0.0031 -0.04731,-0.04172 -0.04501,-0.04482 0.606559,-0.814009 -0.359231,-2.908955 -2.281048,-4.822704 -1.926422,-1.918343 -4.06938,-2.9238997 -4.875318,-2.3036424 l -0.36418,0.3662701 z" />
        <path
           style="fill:url(#linearGradient982);fill-opacity:1;stroke:none"
           id="path3216-7"
           transform="matrix(1.1030185,0,0,1.1016579,-2.428387,-1.5110325)"
           d="m 29.91686,10.029512 c 0.805937,-0.620257 2.948896,0.385298 4.875317,2.303641 1.921817,1.913751 2.887608,4.008695 2.281048,4.822703 -0.0023,0.0031 0.04736,0.04176 0.04501,0.04482 l 0.36418,-0.36627 c 0.0024,-0.0031 -0.04732,-0.04172 -0.04501,-0.04482 0.606558,-0.814009 -0.359232,-2.908954 -2.281049,-4.822705 -1.926421,-1.918342 -4.06938,-2.9238989 -4.875319,-2.3036416 z" />
        <path
           style="fill:url(#linearGradient984);fill-opacity:1;stroke:none"
           id="path3248-0"
           transform="matrix(1.1030185,0,0,1.1016579,-2.428387,-1.5110325)"
           d="m 31.410379,8.5274259 c 0.805936,-0.6202573 2.948896,0.385298 4.875317,2.3036411 1.921815,1.913751 2.887606,4.008695 2.281048,4.822705 -0.0023,0.0031 0.04736,0.04176 0.04501,0.04482 l 0.36418,-0.366269 c 0.0024,-0.0031 -0.04731,-0.04172 -0.04501,-0.04482 0.60656,-0.814008 -0.359231,-2.908953 -2.281049,-4.822704 -1.92642,-1.9183428 -4.069377,-2.9238988 -4.875317,-2.3036415 z" />
        <path
           style="fill:url(#linearGradient986);fill-opacity:1;stroke:none"
           id="path3250-7"
           transform="matrix(1.1030185,0,0,1.1016579,-2.428387,-1.5110325)"
           d="m 31.076631,8.8630883 c 0.805937,-0.6202578 2.948896,0.385298 4.875317,2.3036397 1.921817,1.913753 2.887608,4.008696 2.281049,4.822705 -0.0023,0.0031 0.04736,0.04176 0.04501,0.04482 l 0.36418,-0.366272 c 0.0024,-0.0031 -0.04731,-0.04172 -0.04501,-0.04482 0.60656,-0.814009 -0.35923,-2.908955 -2.281047,-4.822704 C 34.38971,8.8821146 32.24675,7.876558 31.440812,8.4968159 l -0.36418,0.3662694 z" />
        <path
           style="fill:url(#linearGradient988);fill-opacity:1;stroke:none"
           id="path3256-6"
           transform="matrix(1.1030185,0,0,1.1016579,-2.428387,-1.5110325)"
           d="m 32.575756,7.3553646 c 0.805935,-0.6202565 2.948894,0.3852988 4.875315,2.3036406 1.921817,1.9137528 2.887609,4.0086968 2.281049,4.8227048 -0.0023,0.0031 0.04736,0.04176 0.04501,0.04482 l 0.36418,-0.366269 c 0.0024,-0.0031 -0.04731,-0.04173 -0.04501,-0.04482 0.606559,-0.814009 -0.359231,-2.908954 -2.281048,-4.8227055 -1.92642,-1.9183419 -4.069379,-2.9238978 -4.875317,-2.3036407 l -0.364179,0.3662688 z" />
        <path
           style="fill:url(#linearGradient990);fill-opacity:1;stroke:none"
           id="path3258-7"
           transform="matrix(1.1030185,0,0,1.1016579,-2.428387,-1.5110325)"
           d="m 32.242007,7.6910264 c 0.805936,-0.6202573 2.948896,0.3852987 4.875317,2.3036414 1.921816,1.9137512 2.887608,4.0086962 2.281048,4.8227042 -0.0023,0.0031 0.04736,0.04176 0.04501,0.04482 l 0.36418,-0.366269 c 0.0024,-0.0031 -0.04732,-0.04173 -0.04501,-0.04482 0.606559,-0.81401 -0.359232,-2.908955 -2.281048,-4.8227057 -1.926421,-1.9183419 -4.06938,-2.9238986 -4.875317,-2.3036399 l -0.364181,0.366268 z" />
        <path
           style="fill:url(#linearGradient3268-0);fill-opacity:1;fill-rule:evenodd;stroke:url(#linearGradient3270-1);stroke-width:1;stroke-linecap:butt;stroke-linejoin:miter;stroke-miterlimit:4;stroke-dasharray:none;stroke-opacity:1"
           id="path3270-4"
           d="m 0.5,47.5 14.3125,-6.34375 0.125,-0.125 c 0.669045,-0.896758 -0.411452,-3.204199 -2.53125,-5.3125 -2.12488,-2.113357 -4.4860362,-3.21456 -5.375,-2.53125 z" />
        <path
           style="fill:#e6e6e6;fill-opacity:1;fill-rule:evenodd;stroke:#000000;stroke-width:0.907163;stroke-linecap:butt;stroke-linejoin:miter;stroke-miterlimit:4;stroke-dasharray:none;stroke-opacity:1"
           id="path3281-3"
           transform="matrix(1.1030185,0,0,1.1016579,-2.428387,-1.5110325)"
           d="m 4.2587724,40.969711 -1.6040807,3.505099 3.53945,-1.577849 C 5.9298048,42.574706 5.6871091,42.246272 5.3668065,41.927313 4.9980523,41.560105 4.6324975,41.265024 4.2587724,40.969711 Z" />
      </g>
    </g>
  </g>
</svg>
